<?xml version="1.0" standalone="no"?>
<!DOCTYPE svg PUBLIC "-//W3C//DTD SVG 20010904//EN"
 "http://www.w3.org/TR/2001/REC-SVG-20010904/DTD/svg10.dtd">
<svg version="1.0" xmlns="http://www.w3.org/2000/svg"
 width="200.000000pt" height="200.000000pt" viewBox="0 0 200.000000 200.000000"
 preserveAspectRatio="xMidYMid meet">
<metadata>
Created by potrace 1.16, written by Peter Selinger 2001-2019
</metadata>
<g transform="translate(0.000000,200.000000) scale(0.100000,-0.100000)"
fill="#000000" stroke="none">
<path d="M432 1988 c-7 -7 -12 -25 -12 -40 l0 -28 -156 0 c-175 0 -212 -10
-245 -64 -18 -30 -19 -67 -19 -897 l0 -866 23 -34 c12 -18 34 -39 47 -46 36
-18 1824 -18 1860 0 13 7 35 28 47 46 l23 34 0 866 c0 830 -1 867 -19 897 -33
54 -70 64 -244 64 l-156 0 -3 31 c-4 39 -30 59 -55 43 -10 -6 -19 -25 -21 -43
l-3 -31 -500 0 -499 0 0 28 c0 31 -16 52 -40 52 -9 0 -21 -5 -28 -12z m-12
-177 c0 -10 -16 -31 -35 -45 -21 -16 -39 -41 -46 -65 -22 -74 43 -161 121
-161 30 0 75 25 99 56 40 51 16 162 -38 179 -14 4 -21 15 -21 31 l0 24 500 0
500 0 0 -24 c0 -16 -7 -27 -21 -31 -54 -17 -78 -128 -38 -179 64 -81 171 -70
211 22 26 59 13 109 -37 148 -19 14 -35 35 -35 45 0 18 10 19 160 19 147 0
160 -1 170 -19 6 -11 10 -90 10 -185 l0 -166 -920 0 -920 0 0 166 c0 95 4 174
10 185 10 18 23 19 170 19 150 0 160 -1 160 -19z m1498 -1065 c2 -575 1 -631
-14 -648 -16 -17 -56 -18 -902 -18 -810 0 -887 1 -904 17 -17 15 -18 48 -18
643 0 345 3 630 7 633 3 4 416 6 917 4 l911 -2 3 -629z"/>
<path d="M306 1234 c-23 -22 -23 -196 0 -218 20 -20 203 -23 222 -4 16 16 16
210 0 226 -19 19 -202 16 -222 -4z"/>
<path d="M682 1238 c-16 -16 -16 -210 0 -226 8 -8 47 -12 109 -12 127 0 129 2
129 125 0 123 -2 125 -129 125 -62 0 -101 -4 -109 -12z"/>
<path d="M1056 1234 c-12 -12 -16 -37 -16 -105 0 -130 -1 -129 123 -129 67 0
107 4 115 12 16 16 16 210 0 226 -19 19 -202 16 -222 -4z"/>
<path d="M1432 1238 c-8 -8 -12 -48 -12 -113 0 -65 4 -105 12 -113 8 -8 47
-12 109 -12 127 0 129 2 129 125 0 123 -2 125 -129 125 -62 0 -101 -4 -109
-12z"/>
<path d="M335 872 c-40 -9 -45 -21 -45 -122 0 -123 1 -124 124 -125 132 0 126
-6 126 124 0 77 -4 112 -12 118 -14 8 -162 13 -193 5z"/>
<path d="M700 871 c-25 -7 -25 -9 -28 -119 l-3 -112 26 -10 c15 -6 62 -10 106
-10 110 0 119 10 119 128 0 55 -5 94 -12 104 -15 18 -165 32 -208 19z"/>
<path d="M1059 862 c-16 -11 -19 -27 -19 -111 0 -125 2 -126 124 -126 131 0
126 -5 126 117 0 57 -4 109 -9 116 -11 19 -197 22 -222 4z"/>
<path d="M1441 869 c-20 -8 -21 -15 -21 -119 0 -131 -6 -125 128 -125 118 0
122 4 122 127 0 120 -10 130 -124 127 -46 -2 -93 -6 -105 -10z"/>
<path d="M308 489 c-15 -8 -18 -25 -18 -105 0 -135 -1 -134 123 -134 67 0 107
4 115 12 16 16 16 210 0 226 -15 15 -195 16 -220 1z"/>
<path d="M682 488 c-16 -16 -16 -210 0 -226 8 -8 48 -12 115 -12 124 0 123 -1
123 129 0 119 -2 121 -129 121 -62 0 -101 -4 -109 -12z"/>
<path d="M1052 488 c-16 -16 -16 -210 0 -226 16 -16 210 -16 226 0 16 16 16
210 0 226 -16 16 -210 16 -226 0z"/>
<path d="M1432 488 c-8 -8 -12 -48 -12 -113 0 -65 4 -105 12 -113 8 -8 48 -12
115 -12 124 0 123 -1 123 129 0 119 -2 121 -129 121 -62 0 -101 -4 -109 -12z"/>
</g>
</svg>
